<?xml version="1.0" encoding="UTF-8" standalone="no"?>
<!-- Creator: CorelDRAW -->
<svg
   xmlns:dc="http://purl.org/dc/elements/1.1/"
   xmlns:cc="http://web.resource.org/cc/"
   xmlns:rdf="http://www.w3.org/1999/02/22-rdf-syntax-ns#"
   xmlns:svg="http://www.w3.org/2000/svg"
   xmlns="http://www.w3.org/2000/svg"
   xmlns:sodipodi="http://inkscape.sourceforge.net/DTD/sodipodi-0.dtd"
   xmlns:inkscape="http://www.inkscape.org/namespaces/inkscape"
   xml:space="preserve"
   width="130mm"
   height="120mm"
   shape-rendering="geometricPrecision"
   text-rendering="geometricPrecision"
   image-rendering="optimizeQuality"
   fill-rule="evenodd"
   viewBox="0 0 130000 120000"
   id="svg2"
   sodipodi:version="0.32"
   inkscape:version="0.43"
   sodipodi:docname="Polska_podział_admin_dolnoslaskie.svg"
   sodipodi:docbase="C:\Documents and Settings\Kuba\Pulpit\Podzial_admin"><metadata
   id="metadata52"><rdf:RDF><cc:Work
       rdf:about=""><dc:format>image/svg+xml</dc:format><dc:type
         rdf:resource="http://purl.org/dc/dcmitype/StillImage" /></cc:Work></rdf:RDF></metadata><defs
   id="defs50">
  
 </defs><sodipodi:namedview
   inkscape:window-height="540"
   inkscape:window-width="789"
   inkscape:pageshadow="2"
   inkscape:pageopacity="0.0"
   borderopacity="1.0"
   bordercolor="#666666"
   pagecolor="#ffffff"
   id="base"
   inkscape:zoom="0.87724077"
   inkscape:cx="230.31496"
   inkscape:cy="212.59842"
   inkscape:window-x="22"
   inkscape:window-y="29"
   inkscape:current-layer="svg2" />
 <path
   style="fill:none;stroke:#737373;stroke-width:153"
   id="path5"
   d="M 56540,3065 C 56930,3187 57323,3418 57524,3577 C 57819,3723 58110,3867 58388,4015 C 59477,4598 60936,5296 61491,6474 C 61686,6887 61389,7266 60947,7272 C 60045,7284 59593,5995 59062,5470 C 58291,4708 57167,4217 56180,3804 L 56174,3868 L 56165,4245 L 56235,4277 L 56380,4400 L 56483,4520 L 56555,4636 L 56557,4641 L 56557,4641 L 56637,4661 C 57212,4874 56883,5401 56912,5829 C 57286,5745 57419,6069 57502,6369 C 57639,6866 58278,7446 58082,7985 C 58058,8051 58019,8108 57969,8154 C 58336,8543 58126,9225 58268,9758 L 58285,9806 L 58300,9840 L 58302,9845 L 58333,9858 L 58443,9905 L 58600,10009 C 58656,10055 58694,10118 58730,10180 L 58730,10181 L 58745,10180 L 58950,10209 C 59282,10300 59902,10518 59932,10892 L 59931,10936 L 59956,11000 L 59960,11007 L 60148,11012 L 60502,11031 L 60667,11090 L 60759,11147 L 60793,11171 L 60858,11190 L 60999,11225 L 61196,11270 C 61374,11323 61494,11350 61624,11465 L 61668,11511 L 61697,11547 L 61722,11578 L 61768,11614 L 61797,11636 L 61995,11657 L 62155,11642 L 62159,11638 L 62214,11586 L 62306,11503 L 62305,11504 L 62349,11453 L 62389,11411 L 62447,11362 C 62752,11151 63029,11301 63260,11533 L 63346,11630 L 63395,11681 L 63397,11683 L 63427,11684 L 63509,11680 L 63635,11675 C 64297,11663 64876,11412 65540,11372 C 66278,11328 66916,11353 67621,11114 C 68769,10725 69975,10393 70863,9519 C 71267,9121 71943,9117 72013,9803 C 72084,10488 71345,10699 70879,10970 C 69789,11601 68528,12233 67242,12300 C 67094,12307 66832,12305 66842,12526 L 66843,12574 L 66882,12785 L 66948,12940 L 66963,12951 L 67005,12974 L 67063,12998 L 67977,13225 L 67991,13229 L 68061,13245 L 68081,13248 L 68488,12972 C 68757,12852 68867,12687 69130,12457 L 69508,12237 L 69686,12110 L 69917,11975 C 70202,11828 70738,11594 71076,11744 C 71156,11698 71239,11677 71357,11655 L 71485,11650 L 71489,11650 L 71500,11639 L 71556,11563 L 71627,11449 C 72023,10825 72589,9587 73419,9521 C 73755,9495 73970,9641 74267,9748 C 74987,10005 75860,9882 76611,10105 C 76753,10148 76833,10346 76982,10352 C 77510,10372 78409,9924 78836,10416 L 78847,10431 L 79286,10451 L 79925,10446 L 80510,10521 L 83112,10979 C 83452,10981 83768,10914 84003,11203 L 84011,11213 L 84015,11207 C 84289,10865 84943,10980 85242,11222 L 85300,11281 L 85324,11308 L 85681,11305 L 86252,11281 L 87649,11411 L 91719,11907 L 91853,11966 L 91917,11991 L 91931,11980 L 91987,11941 C 92184,11820 92344,11802 92579,11830 L 92776,11877 L 92922,11915 L 93009,11929 L 93070,11911 L 93200,11875 L 93405,11862 C 93732,11897 94121,11956 94364,12197 L 94411,12255 L 94411,12256 L 94453,12252 C 94704,12211 94908,12041 95168,12024 L 97974,11929 L 98904,11839 L 101152,11814 L 103415,11791 L 103418,11790 L 103467,11765 L 103527,11730 L 103636,11660 L 103680,11630 L 105513,11605 L 107190,11650 L 107191,11649 L 107225,11606 L 107232,11595 L 108757,11455 L 109838,11466 L 109849,11457 L 109899,11415 C 110187,11203 110436,11246 110816,11241 L 111317,11257 L 111363,11259 L 111389,11227 L 111507,11025 L 111536,10966 C 111732,10553 112114,10070 112643,10308 C 113032,10483 113249,10597 113666,10689 L 113803,10737 L 113888,10780 L 113918,10795 L 114013,10779 L 114106,10770 L 114233,10776 C 114500,10814 114696,11090 114637,11355 L 114597,11480 L 114556,11562 L 114551,11570 C 114969,11688 115581,12040 115029,12484 L 114993,12508 L 115009,12572 L 115020,12601 L 115072,12543 L 115172,12451 C 115627,12034 116384,11951 116378,12753 C 116742,12639 116941,13053 117115,13312 L 117183,13417 L 117191,13427 L 117300,13430 L 117523,13391 L 117816,13335 C 118754,13250 119213,14315 119517,15046 L 119540,15107 L 119582,15103 L 119669,15096 C 120316,15087 120667,15705 120676,16288 C 120683,16724 120995,16992 121041,17458 C 121098,18037 120903,18676 120572,19139 L 120562,19154 L 120574,19169 L 120655,19265 C 120926,19544 121228,19782 120906,20191 L 120841,20262 L 120770,20329 L 120759,20420 L 120753,20496 L 120753,20524 L 120845,20621 L 120979,20750 L 121141,21330 L 121188,21583 L 121189,21584 L 121256,21662 C 121636,22255 121049,22639 121206,23184 C 121246,23323 121416,23387 121515,23475 C 121946,23858 121835,24317 121812,24838 C 121797,25172 121954,25400 122058,25704 L 122184,26032 L 122256,26679 L 122318,27140 L 122365,27177 C 122819,27571 122648,28315 122879,28828 C 123167,29465 123557,30112 123646,30809 C 123659,31677 124270,31937 124393,32968 L 124397,33118 L 124402,33220 L 124406,33243 L 124456,33285 L 124549,33372 C 124850,33680 125199,33874 125269,34328 L 125277,34542 L 125279,34695 L 125281,34707 L 125360,34767 L 125507,34900 C 125788,35141 126288,35244 126148,35739 C 126095,35924 125857,36264 125747,36420 L 125621,36546 L 125627,36648 L 125605,36841 C 125592,36904 125558,36960 125524,37014 L 125485,37064 L 125485,37065 L 125547,37120 C 125850,37387 125755,37734 125961,38015 C 126312,38494 126831,39410 126232,39911 L 126165,39960 L 126124,39988 L 126056,40243 L 126016,40604 L 125944,41363 L 125955,41862 L 125991,41875 C 126646,42172 126357,43525 126317,44055 C 126299,44281 126308,44681 126076,44848 L 125991,44901 L 125929,44927 L 125890,44940 L 125760,45035 L 125675,45112 L 125665,45130 C 125381,45645 124934,45705 124528,46095 C 124043,46563 123582,47301 122878,46823 C 122592,47113 122160,46892 121837,47078 C 121419,47317 120933,47363 120566,47690 C 119928,48257 119245,48859 118804,49601 L 117008,52407 L 116915,52522 L 116745,52721 L 116668,52809 L 116732,52776 L 116731,52776 L 116732,52776 L 116763,52760 L 116767,52812 L 116771,52817 L 116810,52860 C 117009,53129 116996,53442 116884,53743 L 116856,53798 L 116861,53799 C 117063,53851 117241,53886 117396,54037 L 117439,54086 L 117441,54090 L 117453,54069 C 117902,53434 119011,54207 119355,54686 C 119724,54151 121060,54462 120944,55206 C 120922,55352 120844,55475 120728,55553 L 120794,55592 L 120954,55732 L 121034,55867 C 121494,55618 122079,56084 122321,56464 C 122624,56938 122650,57414 122671,57955 L 122671,58015 L 122739,58043 C 123429,58395 122880,59216 122550,59617 L 122454,59720 L 122476,59784 C 122525,59985 122486,60180 122363,60318 C 122765,60748 122623,61609 121908,61534 L 121883,61529 L 121889,61612 L 121909,61691 L 121928,61706 L 121984,61743 C 122895,62358 122263,63885 121188,63793 L 121158,63852 L 121142,63880 C 121609,64328 121715,65274 121194,65704 L 121155,65733 L 121171,66080 L 121275,66597 L 121292,66675 L 121300,66701 L 121328,66706 C 121686,66795 121802,67224 121680,67541 C 122079,67595 122336,67815 122299,68325 L 122293,68381 L 122327,68397 C 122633,68556 122954,69093 122754,69393 C 122892,69461 122993,69591 123054,69743 L 123079,69820 L 123107,69927 L 123113,69945 L 123174,70008 L 123229,70076 L 123292,70186 C 123414,70454 123249,70695 123018,70806 C 123081,71394 122346,71675 122404,72260 L 122417,72321 C 122995,72209 123547,72816 123649,73342 L 123664,73547 L 123667,73619 C 123802,73720 123847,73896 123828,74083 L 123821,74113 L 123840,74127 L 123947,74188 C 124238,74355 124652,74401 124657,74827 L 124657,74827 C 125090,74915 125698,75525 125450,76014 L 125399,76096 L 125333,76168 L 125290,76200 L 125285,76208 L 125282,76214 C 125369,76296 125420,76393 125450,76514 L 125636,76594 C 126353,76975 125800,77561 125998,78097 L 126022,78155 L 126041,78207 L 126047,78225 C 126441,78396 126628,78504 126697,78964 L 126701,79138 L 126703,79253 L 126709,79299 L 126735,79332 L 126799,79406 L 126887,79524 C 127307,80195 127778,80562 128543,80778 C 128889,80876 129314,81187 129109,81597 C 128999,81817 128766,81824 128581,81938 C 128081,82246 127591,82584 127047,82150 L 126988,82097 L 126946,82061 L 126938,82056 L 126900,82056 L 126829,82072 L 126764,82100 C 126646,82175 126550,82312 126487,82435 L 126467,82486 L 126461,82511 L 126543,82567 L 126670,82643 L 126697,82650 L 126754,82660 L 126835,82673 C 127258,82755 127599,83076 127333,83511 L 127278,83581 L 127252,83611 L 127252,83629 L 127306,83628 C 127869,83640 128154,84043 127886,84560 L 127865,84596 L 127887,84618 C 128191,84990 128105,85547 128319,85975 C 128741,86825 128136,88032 127929,88907 C 127896,89048 127884,89175 127750,89263 L 127693,89296 L 127620,89321 L 127244,89920 L 126754,90494 C 126356,90787 125853,90379 125469,90608 L 125307,90665 L 125186,90694 L 124368,90710 L 124218,90726 L 124194,90731 L 124153,90774 L 124087,90827 C 123811,91014 123444,90939 123184,91157 C 122932,91367 123106,91842 122898,92094 C 122763,92258 122590,92298 122402,92374 L 122336,92393 L 122198,92511 L 121926,92733 L 121918,92744 L 121898,92780 L 121876,92826 L 121864,92857 L 121893,92943 L 121915,93038 L 121924,93166 C 121920,93543 121549,93672 121238,93684 L 121167,93685 L 121135,93687 L 121082,93735 L 120980,93867 L 120836,94052 C 120614,94277 120436,94353 120137,94395 L 120074,94403 L 120046,94409 L 119936,94540 L 119815,94745 L 119678,94998 C 119335,95529 118692,96799 117895,96635 L 117815,96610 L 117766,96594 L 117752,96600 L 117753,96625 L 117755,96695 C 117749,96935 117676,97082 117524,97275 L 117371,97432 L 117253,97548 L 117212,97601 L 117212,97608 L 117211,97666 C 117197,97844 117135,98012 116997,98110 C 116993,98581 116383,98992 116058,99242 L 115910,99338 L 115806,99410 L 115771,99444 L 115766,99480 L 115758,99545 C 115683,99974 115345,100320 115096,100651 L 114534,101402 L 114179,101640 L 113776,101839 L 113771,101863 L 113766,101948 C 113796,102854 112707,104255 112052,104759 C 111967,104823 111772,104807 111670,104812 L 111639,104813 L 111649,104870 C 111704,105329 111444,105534 111169,105919 L 110873,106330 L 110353,107078 L 109867,107921 L 109919,107974 C 110012,108047 110231,108103 110282,108189 L 110501,108681 L 110497,108732 L 110501,108734 L 110578,108791 C 110972,109146 110833,109864 110748,110316 L 110849,110373 L 110928,110442 C 111423,110952 111281,112052 111235,112704 C 111185,113413 110741,113570 111088,114179 L 111138,114290 C 111180,114419 111187,114567 111150,114693 C 111437,114681 111634,114952 111725,115195 L 111760,115310 L 111775,115371 L 111863,115380 L 112028,115420 C 112411,115550 113353,116266 112834,116761 L 112792,116804 L 112620,116899 L 112616,116901 L 112619,116929 L 112634,116979 C 112811,117436 113198,118155 112502,118457 C 112141,118614 111727,118309 111467,118096 L 111355,118001 L 111192,117763 L 111102,117612 L 111097,117616 L 111085,117604 L 111048,117637 C 110805,117835 110530,117765 110347,117565 C 109847,118097 109281,117445 108830,117013 L 108622,116816 C 108237,116243 108647,116595 108008,116610 L 107961,116620 L 107842,116668 C 107397,116824 107105,116806 106868,116470 C 106422,116625 106133,116539 105861,116042 L 105813,115950 L 105735,115685 L 105657,115732 L 105533,115785 C 105438,115820 105339,115858 105238,115856 L 105153,115865 L 104754,115652 L 104739,115624 L 104652,115629 L 104473,115622 C 104081,115567 103919,115337 103858,115018 C 103628,115124 103377,115082 103222,114805 L 103193,114732 L 103190,114722 L 103179,114715 L 103105,114691 L 103079,114692 C 102830,114704 102509,114699 102357,114517 C 102177,114533 102000,114456 101908,114296 C 101194,114388 101110,113704 101450,113206 L 101521,113124 C 101344,113082 101218,112939 101185,112769 C 101111,112734 101046,112681 100999,112610 L 100959,112544 L 100946,112514 L 100878,112474 L 100816,112433 C 100624,112291 100529,112100 100531,111861 L 100536,111784 L 100546,111709 L 100538,111698 L 100519,111678 C 100386,111546 100061,111674 99883,111584 C 99752,111519 99661,111393 99603,111263 L 99583,111211 L 99477,111211 L 99175,111070 L 99090,110981 L 98996,111243 L 98913,111372 L 98804,111476 C 98336,111828 98054,111336 97921,110922 L 97898,110750 L 97897,110709 L 97825,110685 C 97655,110602 97547,110510 97415,110380 L 97373,110396 C 96954,110521 96760,110255 96587,109935 C 96355,110191 96011,110209 95738,109936 C 95568,110095 95347,110112 95122,110057 L 95053,110035 L 95036,110030 L 95012,110053 C 94693,110340 93577,110906 93588,110038 L 93589,110033 L 93574,110023 L 93571,110023 L 93509,110035 C 93267,110062 93037,109970 92931,109738 L 92916,109701 C 92660,109726 92385,109770 92179,109601 L 91989,109783 L 91930,109839 L 91895,109878 L 91889,109887 L 91888,109917 L 91887,109978 C 91860,110536 91294,110847 90776,110599 C 90503,110469 90444,110215 90308,109976 L 90291,109949 C 90131,110031 89956,110041 89784,110097 C 90245,110365 90691,110979 90000,111358 C 89828,111453 89618,111486 89436,111416 C 89283,111539 89063,111548 88922,111693 L 88878,111742 L 88860,111770 L 88881,111834 C 88963,112218 88696,112475 88335,112443 C 88057,112860 87208,112721 87149,112153 L 87136,112150 C 87018,112120 86932,112060 86867,111981 C 86520,112259 85954,112122 85908,111611 L 85907,111532 L 85909,111488 L 85872,111478 L 85810,111455 C 85678,111391 85595,111304 85530,111177 L 85507,111176 C 85151,111128 84973,110840 85048,110504 C 84987,110442 84946,110364 84919,110276 C 84720,110627 84286,110891 83970,110660 L 83965,110724 L 83942,110829 C 83778,111383 82796,111435 82599,110891 C 82379,110842 82149,110682 82013,110479 C 81913,110482 81813,110453 81730,110396 C 81472,110815 80934,111028 80594,110664 C 80531,110687 80463,110698 80393,110700 L 80398,110890 C 80393,111420 80148,112122 79511,111686 L 79448,111637 L 79407,111604 L 79397,111596 L 79241,111573 L 79068,111559 L 79043,111560 C 78991,111721 78852,111844 78674,111868 C 78580,112127 78294,112436 78003,112483 C 78065,112971 77954,113079 77615,113445 L 77465,113577 L 77489,113748 L 77372,114220 L 77373,114230 L 77383,114278 L 77401,114350 C 77504,114839 77225,115302 76664,115161 C 76455,115108 76277,114970 76254,114743 L 76254,114713 L 76183,114679 C 76073,114610 75971,114525 75893,114422 L 75809,114262 L 75772,114153 L 75759,114115 L 75753,114110 L 75725,114091 L 75684,114070 L 75679,114068 L 75677,114069 L 75625,114077 C 75444,114090 75272,114046 75152,113912 L 75134,113946 C 75021,114176 74912,114453 74629,114478 C 74341,114900 73766,114994 73443,114567 L 73416,114531 C 72765,114875 72354,113955 72759,113482 L 72822,113418 L 72817,113379 L 72808,113314 C 72783,113008 72914,112720 73200,112579 L 73216,112572 C 73212,112554 73209,112537 73206,112518 C 72943,112299 73023,111696 73027,111437 C 73031,111163 73162,110718 73080,110446 L 73075,110433 C 72896,110531 72999,110457 72883,110729 C 72727,111006 72366,111008 72113,110860 L 72040,110822 L 71934,110675 C 71784,110683 71641,110623 71547,110513 C 71063,110537 70822,110054 71076,109658 C 70853,109528 70629,109602 70435,109352 L 70392,109286 L 70364,109235 L 70323,109223 C 70118,109144 70060,108955 70023,108755 L 70011,108580 L 70005,108491 L 69974,108470 C 69834,108343 69775,108205 69772,108021 C 69594,107860 69570,107689 69562,107446 L 69572,107220 L 69575,107165 C 69211,106924 68938,106731 68587,107084 C 68510,107141 68434,107168 68350,107188 C 68381,107520 68297,107831 67924,107874 C 67742,108095 67431,108181 67181,108002 L 67026,107877 L 66979,107888 C 66943,108026 66839,108138 66702,108190 C 66663,108270 66600,108337 66523,108398 L 66522,108451 L 66548,108683 L 66573,108974 C 66571,109307 66489,109607 66159,109644 C 66214,110123 65935,110335 65478,110383 L 65434,110387 L 65233,110428 L 65098,110460 L 65032,110502 L 64972,110536 L 64889,110572 C 64668,110637 64476,110589 64318,110425 L 64277,110374 L 64255,110345 L 64236,110333 L 64163,110424 C 63532,111056 62258,110682 62673,109684 L 62685,109655 C 62631,109572 62603,109473 62609,109370 L 62571,109335 L 62514,109276 C 62303,109013 62282,108638 62446,108354 L 62440,108349 L 62397,108291 C 62194,108621 61613,108611 61416,108274 L 61359,108291 L 61229,108305 C 60933,108303 60714,107988 60817,107708 C 61171,106978 60572,107382 60767,106468 L 60770,106453 L 60768,106452 C 60592,106333 60552,106151 60530,105946 L 60531,105749 L 60534,105625 L 60469,105566 C 60383,105472 60349,105364 60353,105257 C 60009,105392 59422,105042 59326,104611 C 59125,104657 58906,104639 58759,104480 L 58706,104416 L 58672,104366 L 58669,104360 L 58587,104329 L 58511,104296 C 58250,104163 58152,103924 58152,103636 L 58157,103545 L 58161,103475 L 58144,103464 C 57993,103348 57960,103188 57945,103003 L 57948,102961 C 57833,102876 57774,102732 57758,102574 C 57605,102485 57521,102308 57540,102120 C 57337,101964 57297,101653 57489,101461 L 57577,101386 L 57646,101345 L 57711,101313 L 57750,101274 C 57582,101158 57415,100991 57369,100812 C 57217,100859 57052,100841 56900,100716 L 56831,100652 L 56798,100613 L 56733,100595 C 56619,100547 56529,100476 56476,100377 L 56322,100327 L 56102,100182 L 56015,100115 L 55986,100105 L 55885,100054 L 55788,99970 L 55684,100003 L 55500,100035 C 55428,100044 55353,100045 55278,100036 C 55103,100698 54071,100522 53999,99825 C 53840,99734 53753,99552 53767,99366 C 53383,99469 53134,99265 53021,98944 C 52771,99220 52300,99151 52017,98807 L 51984,98757 L 51884,98732 L 51727,98668 C 51614,98615 51516,98525 51452,98420 C 51319,98516 51139,98536 50925,98415 L 50874,98379 C 50754,98583 50517,98619 50294,98594 L 50273,98590 L 50262,98612 L 50138,98777 C 50105,98812 50064,98837 50021,98859 C 49960,99025 49807,99116 49624,99146 L 49549,99149 L 49493,99147 L 49460,99145 L 49404,99174 L 49289,99227 C 48987,99320 48515,99289 48366,98955 L 48348,98908 C 48167,98803 48089,98645 48079,98432 L 48080,98408 L 48033,98415 C 47842,98437 47645,98335 47564,98159 L 47545,98109 L 47514,98092 C 47334,97980 47292,97782 47290,97585 C 47166,97449 47063,97293 47077,97102 C 47015,97026 46984,96932 46971,96827 L 46917,96794 L 46789,96652 C 46398,97031 45913,96584 45748,96160 C 45638,96101 45555,95993 45524,95861 L 45511,95790 L 45511,95785 L 45439,95729 L 45375,95678 C 44933,95280 45127,94485 45792,94594 C 45904,94479 46052,94449 46212,94426 L 46389,94414 L 46498,94407 L 46546,94332 L 46649,94237 C 46758,94144 46797,94125 46841,94040 L 46891,93977 L 46954,93923 C 47022,93876 47098,93851 47175,93843 L 47177,93838 C 47188,93805 47153,93808 47123,93797 L 47031,93754 C 46157,93203 47232,93105 46375,93031 L 46274,93139 C 45997,93352 45621,93423 45320,93233 C 45028,93452 44517,93415 44166,93325 C 43867,93822 43252,93676 42944,93210 L 42877,93110 L 42832,93109 L 42802,93112 L 42753,93188 C 42352,93684 41753,93056 41937,92553 C 41916,92504 41902,92451 41894,92395 C 41613,92435 41287,92341 41137,92139 C 40706,92115 40251,91625 40154,91171 C 39829,91288 39418,91102 39223,90832 L 39182,90768 L 39154,90726 L 39154,90725 L 39152,90725 L 39109,90725 C 38873,90733 38595,90780 38406,90604 L 38349,90546 L 38316,90502 L 38298,90478 L 38228,90423 L 38155,90366 L 38108,90336 C 37837,90178 37492,90430 37243,90115 L 37224,90118 C 37054,90129 36914,90078 36815,89985 C 36803,90043 36783,90099 36752,90154 C 36769,90174 36784,90196 36797,90219 C 37085,90295 37231,90559 37236,90889 L 37220,91060 C 37323,91119 37401,91216 37430,91334 C 37539,91437 37565,91588 37587,91751 L 37588,91787 C 37785,91778 37968,91877 38046,92043 C 38551,92129 38821,92866 38473,93264 L 38445,93290 L 38501,93344 C 38848,93724 38463,94434 37960,94384 C 37821,94370 37697,94304 37593,94212 C 37451,94325 37272,94376 37076,94326 L 36978,94295 C 36806,94653 36543,94922 36107,94731 L 36028,94702 L 35805,94855 L 35768,94886 C 35872,95418 35542,95560 35250,95890 L 35135,95980 L 35051,96030 L 35010,96055 L 35011,96053 L 34903,96191 L 34771,96386 L 34777,96377 L 34751,96437 L 34725,96490 L 34681,96559 C 34420,96875 33696,97078 33463,96628 C 33322,96630 33181,96573 33090,96459 L 33039,96387 L 33011,96333 L 32997,96304 L 32711,96012 L 32378,95660 L 32293,95530 L 32272,95483 L 32266,95481 C 31794,95267 31814,94723 31978,94333 L 32023,94216 L 32037,94180 L 31988,94135 L 31852,93984 L 31836,93970 L 31795,93968 C 31548,93934 31430,93724 31398,93498 L 31257,93424 C 30979,93261 30889,93024 30855,92734 C 30671,92671 30550,92489 30569,92292 L 30548,92275 C 30224,92402 29793,92324 29827,91907 C 29573,91700 29436,91454 29448,91148 C 29156,91327 28920,91588 28549,91325 C 28315,91159 28271,90892 28256,90627 L 28256,90614 L 28242,90615 L 28170,90612 C 27571,90512 27084,89297 27899,89154 L 27919,89064 C 27974,88907 28031,88772 28179,88691 L 28216,88674 L 28222,88656 C 28330,88419 28532,88324 28790,88330 L 28801,88331 L 28802,88302 L 28809,88224 C 28895,87804 29362,87681 29622,88020 L 29636,88042 L 29642,88027 L 29739,87846 L 29849,87733 L 29844,87717 C 29800,87529 29876,87345 30019,87244 C 30011,86739 30537,86785 30357,86572 C 30110,86515 29872,86310 29776,86107 L 29751,86035 L 29735,85979 L 29725,85943 L 29707,85928 L 29636,85875 L 29534,85780 L 29356,85521 C 29119,85661 28776,85654 28563,85489 C 28530,85584 28473,85666 28382,85724 C 28303,86295 27623,86304 27260,85977 L 27143,85839 L 27074,85750 L 26983,85735 L 26892,85717 C 26871,85709 26851,85701 26830,85693 C 26787,85731 26738,85764 26684,85792 L 26617,85820 L 26564,85838 L 26520,85852 L 26520,85852 L 26448,85993 L 26415,86087 L 26418,86108 L 26424,86156 L 26428,86227 C 26409,86684 25992,87346 25471,87046 C 25133,86851 24581,86207 24868,85793 C 24831,85654 24867,85500 24961,85371 C 24913,85312 24879,85240 24865,85162 L 24862,85128 L 24845,85106 L 24758,85010 L 24478,85119 L 24399,85117 L 24396,85118 L 24351,85173 L 24269,85266 C 23760,85415 23195,85410 23061,84823 L 23036,84679 L 23024,84523 L 23019,84518 L 22965,84470 L 22906,84404 C 22776,84226 22764,84036 22789,83831 C 22689,83887 22580,83921 22455,83924 L 22391,83918 L 22367,83941 C 22004,84253 21108,84294 20991,83722 C 20849,83729 20725,83666 20643,83566 C 20483,83569 20328,83500 20225,83374 L 20182,83313 L 20165,83314 L 20041,83330 C 19748,83354 19267,83416 19070,83147 C 18770,83211 18508,82938 18256,82756 L 18252,82753 C 18002,83155 17267,83750 17031,82985 L 17007,82936 L 16960,82350 L 16935,82060 C 16889,82010 16844,81956 16822,81892 L 16786,81705 L 16787,81687 L 16722,81682 L 16599,81660 C 16347,81611 16056,81497 16003,81215 L 15997,81163 L 15972,81144 L 15912,81090 C 15796,80960 15764,80852 15737,80674 L 15737,80534 C 15422,80307 15532,79738 15823,79484 C 15795,79422 15780,79354 15782,79284 L 15746,79256 L 15639,79156 L 15532,79014 L 15523,79000 C 15218,79287 14778,79179 14606,78842 C 14264,79261 13514,79128 13561,78500 L 13541,78491 L 13385,78421 L 13241,78369 L 13165,78319 L 13144,78329 L 13116,78343 L 13084,78381 L 12988,78470 C 12940,78505 12892,78536 12842,78563 C 13254,78803 13262,79728 13009,80102 L 13055,80162 C 13200,80382 13122,80643 12946,80814 L 12917,80838 L 12923,80922 C 12847,81627 11993,81772 11479,81438 C 11316,81496 11007,81074 10890,81431 L 10309,81486 C 9782,81408 9956,80614 10155,80354 L 10231,80279 L 10523,80017 L 10719,79821 L 10741,79722 C 10800,79578 10847,79498 10962,79403 L 11008,79372 L 11009,79346 L 11013,79218 C 11030,79084 11046,78990 11114,78878 L 11148,78831 L 11163,78813 L 11163,78809 L 11169,78762 L 11182,78698 C 11220,78567 11287,78474 11388,78390 L 11382,78369 C 11322,78119 11353,77906 11537,77723 L 11555,77707 L 11550,77661 C 11544,77463 11602,77268 11756,77167 C 11773,77014 11831,76878 11958,76790 L 11951,76709 L 11935,76505 C 11940,76261 11976,76101 12146,75935 L 12174,75911 L 12175,75885 L 12161,75735 L 12140,75529 C 12141,75295 12163,75143 12309,74966 L 12342,74931 L 12350,74833 L 12345,74634 L 12340,74390 C 12351,74180 12363,73972 12539,73835 L 12592,73800 L 12611,73715 L 12666,73392 L 12721,73251 L 12766,73168 L 12778,73143 L 12785,72984 L 12770,72893 C 12553,72881 12375,72702 12360,72485 L 12360,72464 L 12355,72459 C 12303,72407 12265,72354 12237,72296 C 11979,72232 11932,71877 11925,71647 L 11936,71358 L 11946,71171 C 11876,71124 11821,71058 11805,70983 L 11784,70896 L 11763,70163 L 11754,69632 L 11739,69618 C 11697,69567 11665,69518 11641,69466 C 11536,69433 11444,69361 11385,69260 L 11298,69262 L 11092,69265 C 10899,69247 10696,69215 10588,69044 C 10352,69020 10225,68925 10044,68718 L 9925,68570 L 9831,68469 L 9768,68424 L 9765,68424 L 9729,68426 L 9667,68432 C 9189,68462 8678,68320 8719,67755 C 8458,67553 8467,67126 8698,66893 L 8707,66887 L 8707,66882 C 8733,66661 8908,66532 9083,66418 L 9120,66394 L 9256,66305 C 9171,66168 9169,66004 9166,65841 L 9179,65609 L 9186,65447 C 9057,65374 8967,65248 8945,65104 C 8680,64945 8299,64618 8145,64470 C 7943,64276 7942,64030 7938,63759 L 7953,63433 L 7962,63190 C 7842,63123 7760,62995 7711,62852 C 6796,62959 6861,61059 7821,61066 L 7864,61072 L 7895,61044 L 7912,61022 L 7898,60939 C 7875,60723 8005,60525 8201,60461 C 8237,60399 8288,60348 8349,60310 C 8350,60146 8427,59995 8561,59911 C 8570,59812 8596,59718 8650,59641 C 8436,59294 8358,58646 8714,58410 C 8727,58259 8817,58121 8951,58039 L 8973,58027 L 8966,57950 L 8946,57749 C 8951,57572 8969,57408 9078,57283 C 9054,57260 9032,57234 9013,57206 C 8746,57140 8494,56892 8397,56670 L 8376,56605 L 8370,56578 L 8341,56554 L 8287,56497 C 8004,56109 8094,55508 8522,55280 L 8537,55273 C 8231,55028 8278,54506 8491,54222 L 8527,54179 L 8545,54158 L 8556,54061 L 8541,53935 L 8536,53922 C 8533,53910 8526,53899 8516,53891 L 8507,53882 L 8438,53847 L 8290,53802 L 8231,53801 L 8106,53793 L 7923,53739 C 7851,53708 7795,53650 7743,53592 L 7719,53595 C 7474,53616 7163,53525 7130,53252 C 6987,53130 6967,52950 6954,52767 L 6957,52565 L 6959,52417 L 6957,52398 L 6916,52363 C 6842,52286 6794,52209 6767,52120 C 6636,52023 6575,51829 6555,51666 L 6551,51481 L 6550,51388 L 6536,51379 C 6246,51156 6226,50539 6525,50302 L 6510,50148 C 6517,49988 6559,49811 6667,49703 C 6717,49543 6861,49420 7040,49399 C 7083,49339 7139,49290 7206,49257 L 7238,49185 C 7316,49057 7411,48935 7537,48855 C 7196,48486 7095,47614 7572,47381 L 7627,47360 L 7628,47345 C 7480,47276 7385,47125 7364,46950 L 7274,46918 L 7131,46831 L 7020,46705 L 6935,46566 L 6954,46575 L 6809,46354 L 6532,46379 C 6327,46291 6349,46127 6143,46073 C 5862,46000 5505,45877 5497,45534 C 5172,45564 4937,45360 4910,45039 C 4789,44926 4777,44740 4721,44555 L 4713,44555 C 4573,44532 4455,44445 4392,44327 C 4278,44284 4192,44202 4104,44107 L 4006,43980 L 3986,43954 C 3818,43961 3670,43872 3591,43738 C 3308,43646 3058,43311 2815,43168 C 2660,43077 2533,42948 2517,42762 C 2304,42784 2091,42737 1969,42547 C 1160,42690 776,41763 1398,41232 L 1587,41108 L 1677,41050 C 1521,40931 1498,40751 1494,40560 L 1501,40483 C 1197,40269 1236,39593 1369,39321 C 1455,39144 1639,39093 1818,39100 C 1842,39078 1868,39058 1896,39041 C 1942,38943 2021,38867 2117,38822 C 2225,38557 2576,38630 2810,38476 C 3036,38328 3134,38058 3407,37956 L 3474,37938 L 3524,37927 L 3555,37921 L 3583,37895 L 3716,37763 L 3828,37677 L 3908,37621 C 3911,37476 3982,37343 4095,37260 C 4092,37063 4141,36875 4310,36754 L 4327,36743 L 4354,36303 L 4327,35879 C 4069,35663 4004,35165 4263,34931 L 4278,34919 L 4277,34908 C 4252,34590 4409,34267 4744,34251 C 4769,34111 4848,33983 4981,33913 L 5067,33876 L 5130,33858 L 5163,33850 L 5207,33825 L 5207,33824 L 5197,33713 L 5193,33695 C 4998,33644 4852,33462 4865,33248 L 4877,33165 L 4843,33116 L 4803,33048 C 4721,32875 4723,32732 4725,32533 L 4745,32278 L 4756,32079 L 4731,32069 C 4507,31958 4458,31745 4443,31509 L 4452,31285 L 4460,31176 C 4403,31127 4354,31064 4342,30996 L 4327,30934 L 4299,30377 L 4283,30047 L 4243,30010 C 4109,29870 4101,29696 4100,29508 L 4116,29311 L 4122,29236 C 3814,29018 3529,28694 3532,28303 L 3533,28297 C 3192,28094 3222,27519 3547,27320 L 3578,27035 L 3540,26671 L 3513,26655 L 3442,26613 C 3209,26461 3076,26274 3049,25994 L 3045,25910 L 3044,25790 L 3043,25788 L 3043,25787 L 3002,25722 C 2966,25659 2937,25567 2947,25493 L 2984,25305 L 3031,25197 L 3045,25167 L 3036,25106 L 3028,25038 L 3025,24947 C 3040,24792 3097,24667 3195,24582 C 3068,24414 3060,24187 3217,23989 L 3265,23940 L 3267,23909 L 3284,23798 C 3524,23640 4134,23079 4459,23920 C 4633,24010 4707,24264 4783,24464 C 4946,24464 5080,24549 5183,24674 L 5225,24740 L 5251,24789 L 5264,24815 L 5295,24844 L 5336,24879 L 5361,24895 C 5585,24969 6030,24996 6412,25103 C 6364,24862 6364,24608 6427,24454 L 6459,24391 L 6487,24345 L 6511,24305 L 6510,24281 L 6514,24092 L 6546,23885 L 6578,23707 C 7234,23244 7388,23581 7472,22893 L 7474,22854 L 7450,22823 L 7408,22764 C 7286,22568 7261,22325 7405,22130 L 7468,22053 L 7521,22001 L 7581,21946 L 7599,21896 L 7657,21719 L 7757,21453 C 7958,21020 8287,20720 8439,20265 C 8557,19914 8860,19746 9169,19798 C 9186,19627 9202,19457 9335,19336 L 9392,19289 L 9392,19289 C 9194,18970 9615,18627 9365,18714 L 9316,18737 L 9309,18742 L 9306,18734 L 9098,18807 C 9098,18807 9098,18807 9098,18807 C 9033,18556 8749,18251 8939,18075 C 9453,17602 10459,17442 11137,17500 L 11153,17465 C 11353,17067 11969,17076 12331,16918 L 15688,15771 C 16034,15671 16190,15479 16595,15479 L 16850,15508 L 16972,15521 C 17233,14793 18467,15379 19025,15035 C 19357,14830 19492,14531 19900,14714 C 20034,14605 20232,14587 20418,14636 L 20465,14651 L 20521,14599 L 20608,14530 C 20921,14291 21491,14253 21863,14262 C 22150,14270 22388,14003 22644,13898 L 22976,13769 L 23389,13716 L 23652,13703 L 23790,13633 L 23984,13550 L 24244,13495 C 25218,13393 26107,13279 26993,12783 C 27844,12306 28545,11473 29197,10758 C 29815,10081 30108,9182 30767,8533 C 31320,7988 32154,7514 32901,7314 C 33767,7082 34633,7166 35475,6876 L 36573,6622 L 36708,6597 L 36790,6592 L 36800,6591 L 36942,6511 L 37109,6387 L 37359,6159 C 37655,5891 37921,5604 38286,5431 L 38297,5428 L 38300,5392 C 38356,5080 38661,4982 38939,4969 C 39699,4933 40451,4105 41169,3864 C 41749,3668 42535,3413 43145,3459 C 44203,3539 45364,3263 46403,2945 L 48978,2283 C 50355,1802 51949,1810 53408,1981 L 53579,2017 L 53702,2038 L 53756,2039 L 53767,2031 L 53839,1972 C 54429,1534 54770,1648 55158,2047 L 55165,2060 L 55309,2209 C 55670,2538 56095,2815 56540,3065 z " /><path
   style="fill:transparent;stroke:#737373;stroke-width:176"
   id="path41"
   d="M 8649,18757 L 8402,19035 L 8371,19500 L 8680,19500 L 8742,19159 L 8649,18757 z " /><path
   style="fill:transparent;stroke:#737373;stroke-width:176"
   id="path43"
   d="M 2211,20243 L 1839,20459 L 2087,20707 L 2087,20985 L 2180,21481 L 2427,21821 L 2644,21976 L 2861,21852 L 2954,21604 L 3016,21388 L 2799,21233 L 2768,20831 L 2923,20397 L 2675,20212 L 2211,20243 z " /><path
   style="fill:transparent;stroke:#737373;stroke-width:176"
   id="path45"
   d="M 4316,21697 L 4161,21543 L 3820,21604 L 3542,21604 L 3263,21604 L 3201,21883 L 3078,22131 L 3263,22347 L 3449,22409 L 3728,22347 L 3820,22069 L 4099,21914 L 4316,21697 z " /><path
   style="fill:transparent;stroke:#737373;stroke-width:176"
   id="path47"
   d="M 8154,18571 L 8092,18942 L 8030,19407 L 8123,19778 L 7999,20212 L 7659,20521 L 7287,20954 L 7101,21264 L 7040,21759 L 6823,22224 L 6637,22038 L 6575,21697 L 6328,21604 L 5832,21450 L 5399,21419 L 5120,21419 L 4904,21295 L 4935,20985 L 4780,20893 L 4378,20923 L 3975,21047 L 3975,21326 L 3542,21326 L 3201,21078 L 3232,20738 L 3356,20459 L 3666,20428 L 3913,20614 L 4223,20552 L 4439,20397 L 4780,20243 L 4997,20026 L 5554,19654 L 5956,19531 L 6513,19190 L 6885,19066 L 7256,18911 L 7349,18757 L 7813,18850 L 7875,18571 L 8154,18571 z " />
</svg>